Coordinates
version=1
nRows=4
nColumns=107
inDegrees=yes

Units are S.I. units (second, meters, Newtons, ...)
If the header above contains a line with 'inDegrees', this indicates whether rotational values are in degrees (yes) or radians (no).

endheader
time	sternoclavicular_r2	sternoclavicular_r3	unrotscap_r3	unrotscap_r2	acromioclavicular_r2	acromioclavicular_r3	acromioclavicular_r1	unrothum_r1	unrothum_r3	unrothum_r2	elv_angle	shoulder_elv	shoulder1_r2	shoulder_rot	elbow_flexion	pro_sup	deviation	flexion	proximal_distal_r1	proximal_distal_r3	cmc_flexion	cmc_abduction	mp_flexion	ip_flexion	mcp2_flexion	mcp2_abduction	pm2_flexion	md2_flexion	mcp3_flexion	mcp3_abduction	pm3_flexion	md3_flexion	mcp4_flexion	mcp4_abduction	pm4_flexion	md4_flexion	mcp5_flexion	mcp5_abduction	pm5_flexion	md5_flexion	bicpt_tx	bicpt_ty	bicpt_tz	bicpt2_tx	bicpt2_ty	bicpt2_tz	ptpt_tx	ptpt_ty	ptpt_tz	FCUpt_tx	FCUpt_ty	FCUpt_tz	EDCpt_tx	EDCpt_ty	EDCpt_tz	APLpt_tx	APLpt_ty	APLpt_tz	FPLpt_tx	FPLpt_ty	FPLpt_tz	FPLpt2_tx	FPLpt2_ty	FPLpt2_tz	PEC1pt2_tx	PEC1pt2_ty	PEC1pt2_tz	PEC1pt3_tx	PEC1pt3_ty	PEC1pt3_tz	PEC2pt2_tx	PEC2pt2_ty	PEC2pt2_tz	PEC2pt3_tx	PEC2pt3_ty	PEC2pt3_tz	PEC3pt2_tx	PEC3pt2_ty	PEC3pt2_tz	PEC3pt3_tx	PEC3pt3_ty	PEC3pt3_tz	DELT2pt2a_tx	DELT2pt2a_ty	DELT2pt2a_tz	DELT2pt2_tx	DELT2pt2_ty	DELT2pt2_tz	LAT1pt2_tx	LAT1pt2_ty	LAT1pt2_tz	LAT1pt3_tx	LAT1pt3_ty	LAT1pt3_tz	LAT2pt2_tx	LAT2pt2_ty	LAT2pt2_tz	LAT2pt3_tx	LAT2pt3_ty	LAT2pt3_tz	LAT3pt2_tx	LAT3pt2_ty	LAT3pt2_tz	LAT3pt3_tx	LAT3pt3_ty	LAT3pt3_tz
      1.53333333	     -0.31911936	      0.13516390	     -0.13516390	      0.31911936	     -0.06461518	      0.52219714	      0.23472402	     -0.23472402	     -0.52219714	      0.06461518	    100.96234125	     75.55434438	     -1.76212528	    -30.27516764	     28.88940054	     64.47444244	      0.26449584	     -0.31298765	      0.30169696	     -0.15649383	     35.59652802	    -17.68366524	      9.05698728	      3.41139875	     -1.41493814	      5.07436816	     15.93650462	     -6.94969289	     -4.87156995	     -2.22864947	     10.02831624	     13.01638360	    -13.10260874	     -4.81322386	      5.27275389	     19.05030153	    -25.11833214	    -11.07594323	    369.27720316	      4.97882356	      0.00085557	     -0.03091117	     -0.00483334	      0.01593500	     -0.01804795	     -0.00443745	      0.00278607	     -0.06798044	     -0.00524376	      0.01033672	     -0.18290090	     -0.00033463	     -0.00773692	      0.00246827	     -0.00019159	      0.00023819	      0.00009528	      0.00047638	      0.00030489	      0.00091466	      0.00051450	     -0.00001283	     -0.00018596	     -0.00022316	      0.00247651	      0.00868876	      0.00604435	     -0.00810111	      0.01956020	     -0.01855280	      0.00247651	      0.00868876	      0.00604435	      0.00054567	      0.01813306	     -0.00952825	      0.00392468	      0.00483171	      0.01591051	      0.00000000	      0.00763342	      0.00000000	     -0.00709372	     -0.03278222	     -0.00629327	      0.01899971	     -0.00076649	     -0.00763306	     -0.00088147	      0.01477508	     -0.00604435	      0.00243453	      0.02132313	     -0.01762936	     -0.00591843	      0.01280227	     -0.00541473	     -0.01234055	      0.02703169	     -0.03026374	     -0.02317002	      0.01431336	     -0.00726162	     -0.01536273	      0.03122916	     -0.03781918
      1.56666667	     -0.31959052	      0.13536346	     -0.13536346	      0.31959052	     -0.06471058	      0.52296815	      0.23507058	     -0.23507058	     -0.52296815	      0.06471058	    100.75493634	     75.66589744	     -1.75850538	    -29.71670987	     29.01482475	     63.20422597	      0.25620960	     -0.30383388	      0.29398315	     -0.15191694	     35.08157710	    -17.68983754	      9.44506550	      3.94790704	     -3.66092593	      4.94790387	     17.00128440	    -21.44207553	     -8.43242947	     -2.29590660	     10.12675768	     11.89076463	    -16.76750422	     -4.55497875	      3.73295605	     20.62631379	    -29.33128875	    -10.84041604	    370.30565631	      5.01118077	      0.00085972	     -0.03092554	     -0.00483566	      0.01600185	     -0.01808202	     -0.00461547	      0.00287992	     -0.06791975	     -0.00514144	      0.01019950	     -0.18293592	     -0.00034840	     -0.00758449	      0.00240726	     -0.00016607	      0.00023356	      0.00009342	      0.00046711	      0.00029895	      0.00089685	      0.00050448	     -0.00001274	     -0.00019331	     -0.00023198	      0.00248016	      0.00870159	      0.00605328	     -0.00811307	      0.01958908	     -0.01858020	      0.00248016	      0.00870159	      0.00605328	      0.00054648	      0.01815983	     -0.00954232	      0.00392893	      0.00483884	      0.01592097	      0.00000000	      0.00765614	      0.00000000	     -0.00710419	     -0.03283062	     -0.00631214	      0.01875190	     -0.00074744	     -0.00736137	     -0.00088277	      0.01479690	     -0.00605328	      0.00243813	      0.02135462	     -0.01765539	     -0.00592717	      0.01282118	     -0.00542273	     -0.01235877	      0.02707160	     -0.03030842	     -0.02320423	      0.01433450	     -0.00727234	     -0.01538541	      0.03127526	     -0.03787502
      1.60000000	     -0.31978866	      0.13544738	     -0.13544738	      0.31978866	     -0.06475070	      0.52329237	      0.23521632	     -0.23521632	     -0.52329237	      0.06475070	    100.80878246	     75.71280841	     -1.75944517	    -29.59673346	     28.80780150	     63.52957543	      0.26979903	     -0.30124807	      0.30657502	     -0.15062403	     35.39302890	    -17.58732299	      9.89981437	      4.29085619	     -4.55687089	      5.51804407	     17.15509318	    -22.60512203	     -9.84077751	     -2.10289917	     10.05746281	     11.45878074	    -17.15850376	     -4.21086690	      3.25268602	     20.76653449	    -29.88939705	    -10.92896297	    370.09222889	      5.01776159	      0.00085287	     -0.03090181	     -0.00483184	      0.01598507	     -0.01802578	     -0.00457008	      0.00285588	     -0.06793529	     -0.00516765	      0.01023460	     -0.18292699	     -0.00034498	     -0.00762353	      0.00242284	     -0.00017253	      0.00023222	      0.00009289	      0.00046444	      0.00029724	      0.00089172	      0.00050159	     -0.00001280	     -0.00018890	     -0.00022668	      0.00248170	      0.00870698	      0.00605703	     -0.00811810	      0.01960122	     -0.01859172	      0.00248170	      0.00870698	      0.00605703	      0.00054682	      0.01817109	     -0.00954823	      0.00393071	      0.00484184	      0.01592537	      0.00000000	      0.00766570	      0.00000000	     -0.00710860	     -0.03285097	     -0.00632008	      0.01869816	     -0.00074335	     -0.00730345	     -0.00088332	      0.01480607	     -0.00605703	      0.00243964	      0.02136786	     -0.01766634	     -0.00593084	      0.01282913	     -0.00542609	     -0.01236644	      0.02708838	     -0.03032721	     -0.02321861	      0.01434338	     -0.00727685	     -0.01539495	      0.03129465	     -0.03789850
      1.63333333	     -0.32279173	      0.13671934	     -0.13671934	      0.32279173	     -0.06535876	      0.52820650	      0.23742519	     -0.23742519	     -0.52820650	      0.06535876	     99.98151704	     76.42381116	     -1.74500666	    -25.69713578	     28.67201960	     59.21005478	      0.28268180	     -0.28844153	      0.31823292	     -0.14422077	     34.52686472	    -17.55501433	      9.71413031	      3.61110033	     -6.31056965	      5.40569544	     16.92369691	    -24.16015688	    -11.00366817	     -2.40783817	      9.62432919	     11.44478530	    -19.48579739	     -4.39891085	      2.61252246	     21.72337349	    -31.83351428	    -11.14448985	    369.50601261	      5.04347757	      0.00084838	     -0.03088625	     -0.00482933	      0.01618818	     -0.01798889	     -0.00516062	      0.00317505	     -0.06772892	     -0.00481969	      0.00977123	     -0.18304306	     -0.00038383	     -0.00710519	      0.00221863	     -0.00009149	      0.00022544	      0.00009018	      0.00045088	      0.00028857	      0.00086570	      0.00048695	     -0.00001258	     -0.00020089	     -0.00024107	      0.00250500	      0.00878875	      0.00611391	     -0.00819434	      0.01978529	     -0.01876631	      0.00250500	      0.00878875	      0.00611391	      0.00055195	      0.01834173	     -0.00963790	      0.00395765	      0.00488731	      0.01599133	      0.00000000	      0.00781137	      0.00000000	     -0.00717535	     -0.03315947	     -0.00644101	      0.01684675	     -0.00061302	     -0.00552104	     -0.00089161	      0.01494511	     -0.00611391	      0.00246255	      0.02156852	     -0.01783224	     -0.00598654	      0.01294960	     -0.00547704	     -0.01248257	      0.02734276	     -0.03061201	     -0.02343666	      0.01447808	     -0.00734518	     -0.01553952	      0.03158854	     -0.03825440
